<svg version="1.2" xmlns="http://www.w3.org/2000/svg" viewBox="0 0 184 48" width="184" height="48">
<style>.a{fill:#0060df}.b{fill:#fff} .c{fill: #000}
@media (prefers-color-scheme: dark) {.c { fill: #fff; } }</style>
<path class="a" d="m0 8c0-4.4 3.6-8 8-8h32c4.4 0 8 3.6 8 8v32c0 4.4-3.6 8-8 8h-32c-4.4 0-8-3.6-8-8z"/>
<path fill-rule="evenodd" class="b" d="m30.9 7.3c2.2 0.9 4.2 2.2 5.9 3.9 1.7 1.7 3 3.7 3.9 5.9 0.9 2.2 1.4 4.5 1.4 6.9 0
 7.3-4.4 13.9-11.2 16.7-6.7 2.8-14.5 1.3-19.7-3.9-5.2-5.2-6.7-13-3.9-19.7 2.8-6.8 9.4-11.2 16.7-11.2 2.4 0 4.7 0.5 6.9 
 1.4zm3.9 19.2q0.7-0.4 1.1-1.1 0.3-0.6 0.3-1.4 0-0.8-0.3-1.4-0.4-0.7-1.1-1.1c-3.6-1.8-10.8-5.3-14.8-7.2q-0.5-0.2-1-0.3-0.5-0.1-1-0.1-0.5
  0.1-1 0.3-0.5 0.2-0.9 0.5-0.4 0.3-0.8 0.6-0.3 0.4-0.5 0.9-0.3 0.5-0.4 1-0.1 0.5-0.1 1v3.1q0 0.8 0.2 1.5 0.3 0.7 0.9
   1.3 0.5 0.6 1.2 0.9 0.7 0.3 1.5 0.3h2.6v-2.6h-2.7q-0.2 0-0.5-0.1-0.2-0.1-0.4-0.3-0.1-0.2-0.2-0.5-0.1-0.2-0.1-0.5v-3.1q0-0.2
    0.1-0.4 0-0.2 0.1-0.4 0.1-0.2 0.2-0.4 0.2-0.1 0.3-0.2 0.2-0.1 0.4-0.2 0.1-0.1 0.3-0.1 0.2 0 0.4 0 0.1 0.1 0.3 0.2c4 1.8
     11.2 5.3 14.7 7.1q0.1 0.1 0.1 0.1 0 0.1 0 0.1 0 0.1 0 0.1 0 0.1-0.1 0.1c-3.5 1.8-10.7 5.3-14.7 7.2q-0.2 0-0.3 0.1-0.2
      0-0.4 0-0.2 0-0.3-0.1-0.2-0.1-0.3-0.2-0.2-0.1-0.3-0.2-0.2-0.2-0.3-0.4-0.1-0.2-0.1-0.4 0-0.2 0-0.4v-1.9h-2.6v1.9q0 0.5
       0.1 1 0.1 0.5 0.3 1 0.3 0.5 0.6 0.9 0.4 0.4 0.8 0.7 0.2 0.1 0.5 0.3 0.3 0.1 0.6 0.2 0.2 0.1 0.5 0.1 0.3 0.1 0.6 0.1
        0.3 0 0.5-0.1 0.2 0 0.4 0 0.2-0.1 0.4-0.1 0.2-0.1 0.4-0.2c4-1.9 11.3-5.3 14.8-7.2zm-8.8-1.2v-2.6h-2.6v2.6z"/>
    <path class="c" d="m86.2 17.6h-5.9q-0.3-4.8-6.5-4.8-2.4 0-3.8 1-1.5 1-1.5 2.8 0 1.7 1.2 2.5 1.3 0.8 4.6 1.5l4.9 0.9q4.2 0.9 6.2 
    2.9 1.9 2 1.9 5.6 0 4.7-3.3 7.4-3.4 2.6-9.3 2.6-5.9 0-9.2-2.6-3.3-2.7-3.6-7.6h6.2q0.2 2.5 1.9 3.8 1.8 1.3 5 1.3 2.9 0 
    4.5-1.1 1.7-1.1 1.7-3 0-1.9-1.3-2.9-1.3-1-4.5-1.6l-4.3-0.9q-4.7-0.8-6.6-2.7-2-1.9-2-5.5 0-4.6 3-7 3.1-2.5 8.6-2.5 1.6 0 
    3.1 0.2 1.5 0.2 3.2 0.9 1.7 0.6 2.9 1.7 1.3 1 2.1 2.9 0.8 1.8 0.8 4.2zm19.6 21.4v-13.9q0-4.3-3.6-4.3-2 0-3.3 1.3-1.2 
    1.3-1.2 3.2v13.7h-6v-30.8h6v11.3q2.4-3.7 6.6-3.7 1.4 0 2.6 0.4 1.2 0.3 2.3 1.2 1.2 0.8 1.9 2.4 0.7 1.7 0.7 3.9v15.3zm17.2
     1q-3.1 0-5-1.9-1.9-1.9-1.9-5 0-6 6.7-7.1l2.4-0.5q0.1 0 0.8-0.1 0.8-0.1 1-0.1 0.2-0.1 0.8-0.2 0.6-0.2 0.9-0.3 0.2-0.2 0.6-0.5
      0.4-0.2 0.5-0.6 0.1-0.4 0.1-0.8 0-2.3-3.4-2.3-2.2 0-3.1 0.7-0.9 0.6-1.1 2.4h-5.7q0.6-7.9 9.8-7.9 9.3 0 9.3 7v12.7q0 1.6 
      1.4 2.8v0.7h-6.5q-0.6-0.8-0.6-2.3-3.2 3.3-7 3.3zm6.9-10.2v-1.6q-0.8 0.4-2.5 0.7l-2 0.4q-1.9 0.4-2.6 1.1-0.8 0.7-0.8 2.1 0 
      1.2 0.9 2 0.9 0.7 2.3 0.7 2.3 0 3.5-1.4 1.2-1.4 1.2-4zm11.2 9.2v-22.8h5.9v4.5q0.9-2.4 2.6-3.6 1.7-1.3 3.7-1.3 0.4 0 0.7 
      0.1v6q-1-0.2-1.8-0.2-5.2 0-5.2 5.2v12.1zm26-23.2q1.5 0 2.9 0.4 1.4 0.3 2.8 1.2 1.5 0.9 2.6 2.3 1.1 1.3 1.7 3.6 0.7 2.2 0.7
      5.1 0 0.5 0 1.1h-15.3q0 1.3 0.2 2.2 0.2 1 0.7 1.9 0.5 0.9 1.4 1.4 1 0.5 2.4 0.5 3.4 0 4.5-2.9h5.9q-1 3.4-3.9 5.4-2.8 2-6.7 
      2-4.8 0-7.6-3.2-2.8-3.1-2.8-8.6
 0-5.8 2.8-9 2.8-3.4 7.7-3.4zm-4.5 9.7h9.1q-0.3-2.5-1.4-3.8-1.2-1.4-3.2-1.4-3.9 0-4.5 5.2z"/>
</svg>