<svg xmlns="http://www.w3.org/2000/svg" data-name="Layer 1" viewBox="0 0 36 45" x="0px" y="0px"><defs><style>.cls-1{fill-rule:evenodd;}</style></defs><path class="cls-1" d="M18,2A16,16,0,1,0,34,18,16,16,0,0,0,18,2Zm9.57,18.18C24.45,21.85,18,24.89,14.5,26.57A3.6,3.6,0,0,1,13,26.9a3.45,3.45,0,0,1-2-.63,3.78,3.78,0,0,1-1.6-3.13V21.43h2.29v1.71a1.52,1.52,0,0,0,.62,1.26,1.2,1.2,0,0,0,1.19.1c3.53-1.67,9.9-4.7,13-6.33a.21.21,0,0,0,0-.32c-3.1-1.66-9.46-4.69-13-6.34a1.19,1.19,0,0,0-1.2.1,1.51,1.51,0,0,0-.62,1.26v2.74a1.13,1.13,0,0,0,1.05,1.25h2.38v2.29H12.77a3.41,3.41,0,0,1-3.34-3.53V12.87A3.77,3.77,0,0,1,11,9.74a3.42,3.42,0,0,1,3.47-.29c3.53,1.66,9.93,4.71,13.06,6.38a2.48,2.48,0,0,1,0,4.35Zm-10.14-1V16.86h2.29v2.29Z"/></svg>